<?xml version="1.0" standalone="no"?><!DOCTYPE svg PUBLIC "-//W3C//DTD SVG 1.1//EN" "http://www.w3.org/Graphics/SVG/1.1/DTD/svg11.dtd"><svg t="1656081375917" class="icon" viewBox="0 0 1024 1024" version="1.1" xmlns="http://www.w3.org/2000/svg" p-id="4770" width="16" height="16" xmlns:xlink="http://www.w3.org/1999/xlink"><defs><style type="text/css">@font-face { font-family: feedback-iconfont; src: url("//at.alicdn.com/t/font_1031158_u69w8yhxdu.woff2?t=1630033759944") format("woff2"), url("//at.alicdn.com/t/font_1031158_u69w8yhxdu.woff?t=1630033759944") format("woff"), url("//at.alicdn.com/t/font_1031158_u69w8yhxdu.ttf?t=1630033759944") format("truetype"); }
</style></defs><path d="M512 0C229.248 0 0 229.216 0 512s229.248 512 512 512c282.752 0 512-229.216 512-512S794.752 0 512 0zM512 896C299.936 896 128 724.064 128 512S299.936 128 512 128c212.064 0 384 171.936 384 384S724.064 896 512 896zM512 192C335.264 192 192 335.296 192 512s143.264 320 320 320c176.736 0 320-143.296 320-320S688.736 192 512 192zM384 704c-35.328 0-64-28.672-64-64s28.672-64 64-64 64 28.672 64 64S419.328 704 384 704zM384 448c-35.328 0-64-28.672-64-64s28.672-64 64-64 64 28.672 64 64S419.328 448 384 448zM640 704c-35.328 0-64-28.672-64-64s28.672-64 64-64 64 28.672 64 64S675.328 704 640 704zM640 448c-35.328 0-64-28.672-64-64s28.672-64 64-64 64 28.672 64 64S675.328 448 640 448z" p-id="4771" fill="#409eff"></path></svg>