<?xml version="1.0" standalone="no"?><!DOCTYPE svg PUBLIC "-//W3C//DTD SVG 1.1//EN" "http://www.w3.org/Graphics/SVG/1.1/DTD/svg11.dtd"><svg t="1656082852940" class="icon" viewBox="0 0 1024 1024" version="1.1" xmlns="http://www.w3.org/2000/svg" p-id="21032" width="16" height="16" xmlns:xlink="http://www.w3.org/1999/xlink"><defs><style type="text/css">@font-face { font-family: feedback-iconfont; src: url("//at.alicdn.com/t/font_1031158_u69w8yhxdu.woff2?t=1630033759944") format("woff2"), url("//at.alicdn.com/t/font_1031158_u69w8yhxdu.woff?t=1630033759944") format("woff"), url("//at.alicdn.com/t/font_1031158_u69w8yhxdu.ttf?t=1630033759944") format("truetype"); }
</style></defs><path d="M840.6 97H185.4C137.1 97 98 136.1 98 184.4v655.3c0 48.3 39.1 87.4 87.4 87.4h655.3c48.3 0 87.4-39.1 87.4-87.4V184.4C928 136.1 888.9 97 840.6 97zM791 380.7L466.7 705.1c-17.1 17.1-44.7 17.1-61.8 0L235 535.2c-17.1-17.1-17.1-44.7 0-61.8 17.1-17.1 44.7-17.1 61.8 0l139 139L729.2 319c17.1-17.1 44.7-17.1 61.8 0 17.1 17 17.1 44.7 0 61.7z" p-id="21033" fill="#409eff"></path></svg>