<?xml version="1.0" standalone="no"?><!DOCTYPE svg PUBLIC "-//W3C//DTD SVG 1.1//EN" "http://www.w3.org/Graphics/SVG/1.1/DTD/svg11.dtd"><svg t="1656082070575" class="icon" viewBox="0 0 1024 1024" version="1.1" xmlns="http://www.w3.org/2000/svg" p-id="13557" width="16" height="16" xmlns:xlink="http://www.w3.org/1999/xlink"><defs><style type="text/css">@font-face { font-family: feedback-iconfont; src: url("//at.alicdn.com/t/font_1031158_u69w8yhxdu.woff2?t=1630033759944") format("woff2"), url("//at.alicdn.com/t/font_1031158_u69w8yhxdu.woff?t=1630033759944") format("woff"), url("//at.alicdn.com/t/font_1031158_u69w8yhxdu.ttf?t=1630033759944") format("truetype"); }
</style></defs><path d="M833 128c0-53-43-96-96-96h-16c-53 0-96 43-96 96H400c0-53-43-96-96-96h-16c-53 0-96 43-96 96H64c-35.3 0-64 28.7-64 64v736c0 35.3 28.7 64 64 64h896c35.3 0 64-28.7 64-64V192c0-35.3-28.7-64-64-64H833zM729 96c22.1 0 40 17.9 40 40v80c0 22.1-17.9 40-40 40s-40-17.9-40-40v-80c0-22.1 17.9-40 40-40z m-433 0c22.1 0 40 17.9 40 40v80c0 22.1-17.9 40-40 40s-40-17.9-40-40v-80c0-22.1 17.9-40 40-40z m632 832H96c-17.7 0-32-14.3-32-32V448h896v448c0 17.7-14.3 32-32 32z m32-544H64V224c0-17.7 14.3-32 32-32h96v32c0 53 43 96 96 96h16c53 0 96-43 96-96v-32h225v24c0 57.4 46.6 104 104 104s104-46.6 104-104v-24h95c17.7 0 32 14.3 32 32v160z" p-id="13558" fill="#409eff"></path></svg>