<?xml version="1.0" standalone="no"?><!DOCTYPE svg PUBLIC "-//W3C//DTD SVG 1.1//EN" "http://www.w3.org/Graphics/SVG/1.1/DTD/svg11.dtd"><svg t="1656082702613" class="icon" viewBox="0 0 1024 1024" version="1.1" xmlns="http://www.w3.org/2000/svg" p-id="20067" width="16" height="16" xmlns:xlink="http://www.w3.org/1999/xlink"><defs><style type="text/css">@font-face { font-family: feedback-iconfont; src: url("//at.alicdn.com/t/font_1031158_u69w8yhxdu.woff2?t=1630033759944") format("woff2"), url("//at.alicdn.com/t/font_1031158_u69w8yhxdu.woff?t=1630033759944") format("woff"), url("//at.alicdn.com/t/font_1031158_u69w8yhxdu.ttf?t=1630033759944") format("truetype"); }
</style></defs><path d="M512.1 121.9c52.7 0 103.7 10.3 151.7 30.6 46.4 19.6 88.1 47.7 123.9 83.6 35.8 35.8 63.9 77.5 83.6 123.9 20.3 48 30.6 99.1 30.6 151.7s-10.3 103.7-30.6 151.7c-19.6 46.4-47.7 88.1-83.6 123.9-35.8 35.8-77.5 63.9-123.9 83.6-48 20.3-99.1 30.6-151.7 30.6s-103.7-10.3-151.7-30.6c-46.4-19.6-88.1-47.7-123.9-83.6-35.8-35.8-63.9-77.5-83.6-123.9-20.3-48-30.6-99.1-30.6-151.7S132.5 408 152.8 360c19.6-46.4 47.7-88.1 83.6-123.9 35.8-35.8 77.5-63.9 123.9-83.6 48.1-20.3 99.1-30.6 151.8-30.6m0-58c-247.3 0-447.8 200.5-447.8 447.8s200.5 447.8 447.8 447.8S959.9 759 959.9 511.7 759.4 63.9 512.1 63.9z" fill="#409eff" p-id="20068"></path><path d="M512.1 511.7m-200 0a200 200 0 1 0 400 0 200 200 0 1 0-400 0Z" fill="#409eff" p-id="20069"></path></svg>