<?xml version="1.0" standalone="no"?><!DOCTYPE svg PUBLIC "-//W3C//DTD SVG 1.1//EN" "http://www.w3.org/Graphics/SVG/1.1/DTD/svg11.dtd"><svg t="1656081834617" class="icon" viewBox="0 0 1024 1024" version="1.1" xmlns="http://www.w3.org/2000/svg" p-id="11597" width="16" height="16" xmlns:xlink="http://www.w3.org/1999/xlink"><defs><style type="text/css">@font-face { font-family: feedback-iconfont; src: url("//at.alicdn.com/t/font_1031158_u69w8yhxdu.woff2?t=1630033759944") format("woff2"), url("//at.alicdn.com/t/font_1031158_u69w8yhxdu.woff?t=1630033759944") format("woff"), url("//at.alicdn.com/t/font_1031158_u69w8yhxdu.ttf?t=1630033759944") format("truetype"); }
</style></defs><path d="M853.333333 768V170.666667H256a85.333333 85.333333 0 0 1 85.333333-85.333334h512a85.333333 85.333333 0 0 1 85.333334 85.333334v512a85.333333 85.333333 0 0 1-85.333334 85.333333zM170.666667 256h512a85.333333 85.333333 0 0 1 85.333333 85.333333v512a85.333333 85.333333 0 0 1-85.333333 85.333334H170.666667a85.333333 85.333333 0 0 1-85.333334-85.333334V341.333333a85.333333 85.333333 0 0 1 85.333334-85.333333z m0 85.333333v512h512V341.333333H170.666667z m395.093333 99.285334l63.146667 57.429333-221.44 243.328-158.890667-146.688 57.898667-62.72 95.744 88.405333 163.541333-179.754666z" p-id="11598" fill="#409eff"></path></svg>