<?xml version="1.0" standalone="no"?><!DOCTYPE svg PUBLIC "-//W3C//DTD SVG 1.1//EN" "http://www.w3.org/Graphics/SVG/1.1/DTD/svg11.dtd"><svg t="1656081773859" class="icon" viewBox="0 0 1024 1024" version="1.1" xmlns="http://www.w3.org/2000/svg" p-id="9921" width="16" height="16" xmlns:xlink="http://www.w3.org/1999/xlink"><defs><style type="text/css">@font-face { font-family: feedback-iconfont; src: url("//at.alicdn.com/t/font_1031158_u69w8yhxdu.woff2?t=1630033759944") format("woff2"), url("//at.alicdn.com/t/font_1031158_u69w8yhxdu.woff?t=1630033759944") format("woff"), url("//at.alicdn.com/t/font_1031158_u69w8yhxdu.ttf?t=1630033759944") format("truetype"); }
</style></defs><path d="M512 128C300.8 128 128 300.8 128 512s172.8 384 384 384 384-172.8 384-384S723.2 128 512 128zM512 832c-179.2 0-320-140.8-320-320s140.8-320 320-320 320 140.8 320 320S691.2 832 512 832z" p-id="9922" fill="#409eff"></path><path d="M678.4 358.4 448 595.2 345.6 486.4c-12.8-12.8-32-12.8-44.8 0s-12.8 32 0 44.8l128 128c6.4 6.4 12.8 6.4 25.6 6.4s19.2 0 25.6-6.4l256-256c12.8-12.8 12.8-32 0-44.8S691.2 352 678.4 358.4z" p-id="9923" fill="#409eff"></path></svg>