<?xml version="1.0" standalone="no"?><!DOCTYPE svg PUBLIC "-//W3C//DTD SVG 1.1//EN" "http://www.w3.org/Graphics/SVG/1.1/DTD/svg11.dtd"><svg t="1656083493416" class="icon" viewBox="0 0 1137 1024" version="1.1" xmlns="http://www.w3.org/2000/svg" p-id="24056" width="17.765625" height="16" xmlns:xlink="http://www.w3.org/1999/xlink"><defs><style type="text/css">@font-face { font-family: feedback-iconfont; src: url("//at.alicdn.com/t/font_1031158_u69w8yhxdu.woff2?t=1630033759944") format("woff2"), url("//at.alicdn.com/t/font_1031158_u69w8yhxdu.woff?t=1630033759944") format("woff"), url("//at.alicdn.com/t/font_1031158_u69w8yhxdu.ttf?t=1630033759944") format("truetype"); }
</style></defs><path d="M739.555556 113.777778H398.222222a398.222222 398.222222 0 1 0 0 796.444444h341.333334a398.222222 398.222222 0 1 0 0-796.444444z m0 682.666666H398.222222c-156.842667 0-284.444444-127.601778-284.444444-284.444444s127.601778-284.444444 284.444444-284.444444h341.333334c156.842667 0 284.444444 127.601778 284.444444 284.444444s-127.601778 284.444444-284.444444 284.444444z" fill="#409eff" p-id="24057"></path><path d="M568.888889 512a170.666667 170.666667 0 1 1-341.333333 0 170.666667 170.666667 0 0 1 341.333333 0z" fill="#409eff" p-id="24058"></path></svg>